<?xml version="1.0" encoding="UTF-8"?>
<svg version="1.1" xmlns="http://www.w3.org/2000/svg" width="526" height="528">
<path d="M0 0 C173.58 0 347.16 0 526 0 C526 174.24 526 348.48 526 528 C352.42 528 178.84 528 0 528 C0 353.76 0 179.52 0 0 Z " fill="#FEFEFE" transform="translate(0,0)"/>
<path d="M0 0 C1.33708008 0.17644043 1.33708008 0.17644043 2.70117188 0.35644531 C6.66500313 0.93778741 10.2326804 1.5856512 13.890625 3.25390625 C17.13099631 4.69015778 19.48987438 5.12775655 23 5.3125 C28.0382948 5.6007948 28.0382948 5.6007948 29.125 6.6875 C31.64106449 6.93099011 34.15586024 7.07113366 36.6796875 7.2109375 C39.51293638 7.76310421 40.40718575 8.40788486 42.125 10.6875 C42.62 12.1725 42.62 12.1725 43.125 13.6875 C43.599375 14.161875 44.07375 14.63625 44.5625 15.125 C49.21159039 19.77409039 49.20668553 26.28657263 49.44140625 32.5234375 C49.48330078 33.58691406 49.52519531 34.65039062 49.56835938 35.74609375 C49.60767578 36.84050781 49.64699219 37.93492187 49.6875 39.0625 C49.73068359 40.18011719 49.77386719 41.29773438 49.81835938 42.44921875 C49.92397411 45.19520199 50.0260797 47.94126881 50.125 50.6875 C50.785 50.6875 51.445 50.6875 52.125 50.6875 C54.88838583 62.88683746 53.81371315 80.3100737 48.125 91.6875 C47.465 91.6875 46.805 91.6875 46.125 91.6875 C45.980625 92.326875 45.83625 92.96625 45.6875 93.625 C45.125 95.6875 45.125 95.6875 44.125 96.6875 C41.09474198 97.22571001 38.05423012 97.65306821 35.0078125 98.08984375 C31.94486187 98.53730475 31.94486187 98.53730475 29.125 100.6875 C23.01038376 101.74862032 16.97552248 101.84795935 10.78125 101.85546875 C9.32845642 101.86046135 9.32845642 101.86046135 7.84631348 101.86555481 C5.80916821 101.87059207 3.77201477 101.87296413 1.73486328 101.87280273 C-1.3656987 101.87499343 -4.46590685 101.8931949 -7.56640625 101.91210938 C-9.55468629 101.91504321 -11.54296801 101.91702807 -13.53125 101.91796875 C-14.44918335 101.92515427 -15.3671167 101.93233978 -16.31286621 101.93974304 C-23.3705176 101.91491333 -29.81883252 101.03322609 -36.1875 97.75 C-36.82300781 97.43160156 -37.45851562 97.11320312 -38.11328125 96.78515625 C-43.74223838 93.27797897 -45.06499486 87.79834305 -46.875 81.6875 C-47.38867431 78.99281508 -47.66813622 76.42844512 -47.875 73.6875 C-48.535 73.6875 -49.195 73.6875 -49.875 73.6875 C-53.51828766 62.75763702 -50.43285063 49.86991864 -47.84765625 39.02734375 C-47.15196285 36.10516967 -46.65196877 33.2381107 -46.30859375 30.25390625 C-45.90935369 26.97006686 -45.29665555 25.5308111 -43.875 22.6875 C-43.771875 21.470625 -43.66875 20.25375 -43.5625 19 C-43.06085847 13.87746821 -40.56685554 9.97857598 -37.875 5.6875 C-37.215 5.6875 -36.555 5.6875 -35.875 5.6875 C-35.875 5.0275 -35.875 4.3675 -35.875 3.6875 C-24.45813616 -3.25216233 -12.81891477 -1.75534269 0 0 Z " fill="#010101" transform="translate(172.875,296.3125)"/>
<path d="M0 0 C1.03382813 -0.03738281 2.06765625 -0.07476562 3.1328125 -0.11328125 C12.56637198 -0.22021077 20.37712866 2.73122437 27.25 9.375 C27.25 10.035 27.25 10.695 27.25 11.375 C27.848125 11.643125 28.44625 11.91125 29.0625 12.1875 C33.57128424 14.63512573 34.71978524 17.18681156 36.19335938 22.13085938 C36.49983398 23.21077148 36.49983398 23.21077148 36.8125 24.3125 C38.27047167 29.55450042 38.27047167 29.55450042 40.34765625 34.56640625 C41.81991181 37.51729077 42.02810446 40.6987928 42.4921875 43.9375 C43.0525723 46.52655304 43.0525723 46.52655304 45.296875 48.05859375 C48.43150347 51.77626311 47.75184663 55.74083664 47.625 60.4375 C47.62371094 61.34822266 47.62242187 62.25894531 47.62109375 63.19726562 C47.53148496 69.95277256 47.53148496 69.95277256 45.25 73.375 C44.85749009 75.0077322 44.52889311 76.65657213 44.25 78.3125 C43.67840932 81.69611271 42.92371295 84.36929049 41.25 87.375 C40.59 87.375 39.93 87.375 39.25 87.375 C38.87875 88.4578125 38.87875 88.4578125 38.5 89.5625 C35.42202994 96.48793263 31.3297576 98.55698521 24.5390625 101.17578125 C23.45367187 101.57152344 22.36828125 101.96726562 21.25 102.375 C20.22648437 102.76042969 19.20296875 103.14585937 18.1484375 103.54296875 C7.13932453 107.48292262 -3.56784143 107.57660996 -15.1875 107.625 C-16.45271484 107.645625 -17.71792969 107.66625 -19.02148438 107.6875 C-20.22998047 107.69265625 -21.43847656 107.6978125 -22.68359375 107.703125 C-23.77728271 107.7124707 -24.87097168 107.72181641 -25.99780273 107.73144531 C-28.75 107.375 -28.75 107.375 -30.62915039 105.97949219 C-31.75 104.375 -31.75 104.375 -31.75 102.375 C-32.41 102.375 -33.07 102.375 -33.75 102.375 C-33.75 101.385 -33.75 100.395 -33.75 99.375 C-34.6575 99.148125 -35.565 98.92125 -36.5 98.6875 C-40.22517446 97.18310262 -41.58442602 95.70665227 -43.75 92.375 C-43.75 91.715 -43.75 91.055 -43.75 90.375 C-44.35585938 90.30796875 -44.96171875 90.2409375 -45.5859375 90.171875 C-47.75 89.375 -47.75 89.375 -49.1640625 87.265625 C-49.56367188 86.39421875 -49.96328125 85.5228125 -50.375 84.625 C-50.77976562 83.76390625 -51.18453125 82.9028125 -51.6015625 82.015625 C-51.98054688 81.14421875 -52.35953125 80.2728125 -52.75 79.375 C-53.31460937 78.09302734 -53.31460937 78.09302734 -53.890625 76.78515625 C-55.0291047 73.59223817 -54.88178687 70.73556508 -54.75 67.375 C-55.41 67.375 -56.07 67.375 -56.75 67.375 C-61.22925355 62.35280663 -61.96826759 58.48979336 -62.0625 51.9375 C-62.09988281 50.61878906 -62.13726562 49.30007813 -62.17578125 47.94140625 C-61.75 44.375 -61.75 44.375 -59.91796875 41.90234375 C-57.75 40.375 -57.75 40.375 -54.75 40.375 C-54.54375 39.446875 -54.3375 38.51875 -54.125 37.5625 C-51.69074823 29.11118928 -46.80603465 21.66018191 -40.75 15.375 C-39.863125 14.42625 -38.97625 13.4775 -38.0625 12.5 C-35.75 10.375 -35.75 10.375 -32.75 9.375 C-32.42 8.385 -32.09 7.395 -31.75 6.375 C-29.859375 5.6796875 -29.859375 5.6796875 -27.5 5.25 C-26.69175781 5.0953125 -25.88351562 4.940625 -25.05078125 4.78125 C-24.29152344 4.6471875 -23.53226562 4.513125 -22.75 4.375 C-21.739375 4.16875 -20.72875 3.9625 -19.6875 3.75 C-19.048125 3.62625 -18.40875 3.5025 -17.75 3.375 C-17.75 2.715 -17.75 2.055 -17.75 1.375 C-11.85961902 0.13598883 -5.99401719 0.08100023 0 0 Z " fill="#020202" transform="translate(315.75,298.625)"/>
<path d="M0 0 C0.67933594 0.22816406 1.35867188 0.45632812 2.05859375 0.69140625 C7.60583526 2.6446603 12.78578037 5.2967263 18 8 C18 8.66 18 9.32 18 10 C18.60714844 10.09152344 19.21429688 10.18304688 19.83984375 10.27734375 C23.79396474 11.60015095 25.17099373 15.45899459 27 19 C28.13831097 21.62570398 29.07018186 24.29507449 30 27 C30.4021875 27.99 30.4021875 27.99 30.8125 29 C31.2146875 29.99 31.2146875 29.99 31.625 31 C31.86476563 31.5775 32.10453125 32.155 32.3515625 32.75 C34.0492893 38.64090746 34.17242508 44.88682032 34.23828125 50.98046875 C34.246353 51.71517899 34.25442474 52.44988922 34.26274109 53.2068634 C34.27647213 54.75222492 34.28724253 56.29761537 34.29516602 57.84301758 C34.30665651 59.39714687 34.32706194 60.95123761 34.35668945 62.50512695 C34.55092395 72.73444892 33.7794872 81.33204917 30 91 C29.73243896 91.71728271 29.46487793 92.43456543 29.18920898 93.17358398 C28.53558836 94.84671918 27.80286654 96.48840027 27.0625 98.125 C26.59972656 99.17945313 26.13695312 100.23390625 25.66015625 101.3203125 C23.78295123 104.35034225 22.10468511 105.3530336 19 107 C18.67 107.66 18.34 108.32 18 109 C17.01 109 16.02 109 15 109 C15 109.66 15 110.32 15 111 C14.32453125 111.26554687 13.6490625 111.53109375 12.953125 111.8046875 C12.06109375 112.15789062 11.1690625 112.51109375 10.25 112.875 C9.36828125 113.22304687 8.4865625 113.57109375 7.578125 113.9296875 C5.08361728 114.91752337 5.08361728 114.91752337 3.12280273 115.99755859 C-4.11423855 119.41507343 -12.47309508 119.31430134 -20.3125 119.25 C-21.75592773 119.26160156 -21.75592773 119.26160156 -23.22851562 119.2734375 C-31.81310686 119.24967393 -31.81310686 119.24967393 -36 117 C-36 116.34 -36 115.68 -36 115 C-36.66 115 -37.32 115 -38 115 C-40.8394052 111.32547562 -42 109.73113419 -42 105 C-42.66 105 -43.32 105 -44 105 C-44.16081055 104.26475098 -44.32162109 103.52950195 -44.48730469 102.77197266 C-45.23276011 99.38764757 -45.99128764 96.00637671 -46.75 92.625 C-47.00265625 91.46871094 -47.2553125 90.31242187 -47.515625 89.12109375 C-49.26382525 81.38530763 -51.44574451 74.10851097 -55 67 C-56.18380419 59.01777747 -56.21839968 51.05808138 -56.25 43 C-56.270625 41.68515625 -56.29125 40.3703125 -56.3125 39.015625 C-56.34927313 29.85911456 -55.13539742 23.1001704 -51 15 C-50.34 15 -49.68 15 -49 15 C-48.34 13.68 -47.68 12.36 -47 11 C-46.34 11 -45.68 11 -45 11 C-44.896875 10.401875 -44.79375 9.80375 -44.6875 9.1875 C-43.8550317 6.53873724 -43.20520332 5.69065588 -41 4 C-37.86328125 3.26953125 -37.86328125 3.26953125 -34.3125 2.8125 C-33.13300781 2.65394531 -31.95351563 2.49539062 -30.73828125 2.33203125 C-29.83464844 2.22246094 -28.93101562 2.11289063 -28 2 C-28 1.34 -28 0.68 -28 0 C-17.78121092 -4.05852616 -10.28731726 -3.62983389 0 0 Z " fill="#FDFDFD" transform="translate(473,113)"/>
<path d="M0 0 C0.80405273 0.00346436 1.60810547 0.00692871 2.43652344 0.01049805 C8.31766148 0.11656481 13.70359662 0.91738869 19.39453125 2.4609375 C22.90553237 3.40470845 26.42899178 4.07087409 30 4.75 C35.05623143 5.82099662 38.72343497 6.812176 42.5625 10.3125 C42.5625 10.9725 42.5625 11.6325 42.5625 12.3125 C43.325625 12.35375 44.08875 12.395 44.875 12.4375 C47.5625 13.3125 47.5625 13.3125 49.19921875 15.93359375 C51.65106576 22.01052114 51.95817173 29.36146796 49.75390625 35.6015625 C46.69785586 40.40241675 41.86897038 43.47683147 36.5625 45.3125 C33.08625577 45.81023497 29.69642144 46.05815995 26.1875 46.171875 C23.63693805 46.01530601 23.63693805 46.01530601 22.5625 47.3125 C15.9151679 47.76334429 9.84042478 47.59538174 3.5625 45.3125 C3.71304379 47.2836223 3.71304379 47.2836223 4.5625 49.3125 C6.61384471 50.37796563 6.61384471 50.37796563 9.0625 50.9375 C11.53125 51.6015625 11.53125 51.6015625 13.5625 52.3125 C14.78735812 54.76221624 14.72972808 56.45484461 14.75 59.1875 C14.76417969 60.05117187 14.77835937 60.91484375 14.79296875 61.8046875 C14.54248826 64.53025485 14.10848753 66.05935729 12.5625 68.3125 C9.46396635 70.43760052 6.50646796 70.67364515 2.8125 70.9375 C1.33523438 71.04964844 1.33523438 71.04964844 -0.171875 71.1640625 C-0.91953125 71.21304688 -1.6671875 71.26203125 -2.4375 71.3125 C-2.4375 72.6325 -2.4375 73.9525 -2.4375 75.3125 C-1.67824219 75.44527344 -0.91898437 75.57804687 -0.13671875 75.71484375 C0.85714844 75.89144531 1.85101563 76.06804687 2.875 76.25 C3.86113281 76.42402344 4.84726562 76.59804687 5.86328125 76.77734375 C8.5625 77.3125 8.5625 77.3125 11.5625 78.3125 C13.39812242 78.4708535 15.2377459 78.58475291 17.078125 78.671875 C18.16480469 78.73632812 19.25148438 78.80078125 20.37109375 78.8671875 C22.64895319 78.99646443 24.9276845 79.11126526 27.20703125 79.2109375 C34.12246844 79.65182724 38.63513967 80.22347165 43.5625 85.3125 C44.31640625 88.46875 44.31640625 88.46875 44.125 91.8125 C44.08503906 92.9159375 44.04507813 94.019375 44.00390625 95.15625 C43.33222576 99.95906273 41.79666241 103.67406729 38.5625 107.3125 C37.9025 107.3125 37.2425 107.3125 36.5625 107.3125 C36.5625 107.9725 36.5625 108.6325 36.5625 109.3125 C33.5625 111.3125 33.5625 111.3125 30.5625 111.3125 C30.5625 111.9725 30.5625 112.6325 30.5625 113.3125 C29.9025 113.3125 29.2425 113.3125 28.5625 113.3125 C28.5625 113.9725 28.5625 114.6325 28.5625 115.3125 C20.6425 115.3125 12.7225 115.3125 4.5625 115.3125 C4.5625 114.6525 4.5625 113.9925 4.5625 113.3125 C3.45132813 113.33570313 2.34015625 113.35890625 1.1953125 113.3828125 C-19.4863769 113.68979361 -19.4863769 113.68979361 -24.6875 109.5 C-25.265 108.778125 -25.8425 108.05625 -26.4375 107.3125 C-27.46483451 106.44114821 -28.50764608 105.58782656 -29.5625 104.75 C-32.58599113 102.18660534 -34.29553259 100.67942534 -34.7121582 96.66796875 C-34.74062495 93.21577698 -34.75917196 89.76482728 -34.75 86.3125 C-34.76611328 85.13042969 -34.78222656 83.94835937 -34.79882812 82.73046875 C-34.80256339 75.95470648 -34.12961864 70.11441891 -32.13012695 63.63964844 C-31.31372833 60.89664116 -31.00947305 58.29179901 -30.875 55.4375 C-30.73755725 52.64699566 -30.53913328 50.56546505 -29.49438477 47.96508789 C-28.48359026 45.42817815 -27.81461879 43.02433025 -27.21875 40.36328125 C-27.00863281 39.43193359 -26.79851562 38.50058594 -26.58203125 37.54101562 C-26.36933594 36.57873047 -26.15664063 35.61644531 -25.9375 34.625 C-25.72480469 33.68205078 -25.51210938 32.73910156 -25.29296875 31.76757812 C-24.08119976 26.35922266 -22.95874732 20.94675617 -21.97021484 15.49291992 C-21.08619319 11.8745893 -19.59222174 9.3544601 -17.4375 6.3125 C-15.25 5 -15.25 5 -13.4375 4.3125 C-13.1075 3.6525 -12.7775 2.9925 -12.4375 2.3125 C-8.69810882 -0.38024225 -4.41707984 -0.03078905 0 0 Z " fill="#020202" transform="translate(355.4375,110.6875)"/>
<path d="M0 0 C0.33 0.33 0.66 0.66 1 1 C2.91649811 1.11831677 4.83730417 1.16738821 6.75732422 1.18945312 C8.60461624 1.21452942 8.60461624 1.21452942 10.48922729 1.2401123 C11.48266962 1.25013527 11.48266962 1.25013527 12.49618149 1.26036072 C14.56387341 1.28134322 16.63140639 1.30837111 18.69900513 1.33703613 C23.09094257 1.39682371 27.48295395 1.44890744 31.875 1.5 C36.95641348 1.55921521 42.03774941 1.62156076 47.11902237 1.69187927 C49.15694965 1.7184535 51.19488462 1.73927164 53.23287964 1.7598877 C54.47071198 1.77660522 55.70854431 1.79332275 56.98388672 1.81054688 C58.07563202 1.82307495 59.16737732 1.83560303 60.29220581 1.84851074 C63 2 63 2 66 3 C66 3.66 66 4.32 66 5 C66.61875 5.28875 67.2375 5.5775 67.875 5.875 C70 7 70 7 72 9 C72.28300433 11.57682886 72.42813394 13.9821511 72.4375 16.5625 C72.44136719 17.28179687 72.44523437 18.00109375 72.44921875 18.7421875 C72.31813474 24.80482287 70.7593266 29.16658008 67 34 C66.34 34 65.68 34 65 34 C65 34.99 65 35.98 65 37 C63.03814584 38.71140469 61.03697617 40.37873325 59 42 C58.505 42.99 58.505 42.99 58 44 C51.73 44 45.46 44 39 44 C39.495 47.7434375 39.495 47.7434375 40 51.5625 C41.21078196 62.39323291 41.22772914 73.24151083 41.25 84.125 C41.25499512 84.97965851 41.25999023 85.83431702 41.26513672 86.71487427 C41.37838025 110.36210488 41.37838025 110.36210488 36.625 116.5 C33.07631383 119.87970112 30.58192813 121.26545612 25.671875 121.1953125 C24.87265625 121.18886719 24.0734375 121.18242187 23.25 121.17578125 C22.425 121.15902344 21.6 121.14226562 20.75 121.125 C19.90953125 121.11597656 19.0690625 121.10695313 18.203125 121.09765625 C16.13529396 121.07415817 14.06761005 121.03828908 12 121 C12 120.34 12 119.68 12 119 C10.824375 118.7834375 10.824375 118.7834375 9.625 118.5625 C7 118 7 118 5 117 C5 116.34 5 115.68 5 115 C4.401875 114.95875 3.80375 114.9175 3.1875 114.875 C1 114 1 114 -0.75 111.625 C-2.43923202 106.72622714 -2.43670075 102.13963196 -2 97 C-1.67 96.34 -1.34 95.68 -1 95 C-0.59172761 91.58164664 -0.23607344 88.16475266 0.07421875 84.73632812 C0.5707073 79.97761162 1.63379775 75.82150875 3.23339844 71.3190918 C4.57206423 67.2694146 5.36562664 63.1172217 6.1875 58.9375 C6.36474609 58.09123047 6.54199219 57.24496094 6.72460938 56.37304688 C8.68408736 47.55240002 8.68408736 47.55240002 7 39 C4.31874972 38.59601698 1.6967238 38.29794626 -1 38.0625 C-6.67937945 37.49220302 -11.80909385 36.75618082 -17.1484375 34.6328125 C-19.26643925 33.81390469 -19.26643925 33.81390469 -22.75 33.8125 C-26.18409078 32.9539773 -26.85265041 32.61218099 -28.9375 29.9375 C-31.22993801 25.76117729 -31.46178662 21.61406365 -31.5 16.9375 C-31.50636475 16.26517334 -31.51272949 15.59284668 -31.51928711 14.90014648 C-31.3602739 8.61413166 -29.4629263 4.19438945 -26 -1 C-17.86199708 -3.71266764 -8.10739705 -2.33602966 0 0 Z " fill="#010101" transform="translate(253,103)"/>
<path d="M0 0 C1.14758789 0.49826294 1.14758789 0.49826294 2.31835938 1.0065918 C5.21618214 2.08008422 7.41262474 2.26798238 10.4921875 2.30859375 C11.52730469 2.33373047 12.56242187 2.35886719 13.62890625 2.38476562 C15.78509818 2.41979401 17.94135445 2.45107178 20.09765625 2.47851562 C26.17828496 2.63336393 30.61400757 3.12363555 36 6 C37.4540625 6.7734375 37.4540625 6.7734375 38.9375 7.5625 C39.618125 8.036875 40.29875 8.51125 41 9 C41 9.66 41 10.32 41 11 C41.66 11 42.32 11 43 11 C43 14.63 43 18.26 43 22 C42.34 22 41.68 22 41 22 C41 23.32 41 24.64 41 26 C40.34 26 39.68 26 39 26 C39 26.99 39 27.98 39 29 C32.67436753 35.32563247 26.08709734 36.28114012 17.44140625 36.4140625 C16.65225327 36.43342865 15.86310028 36.4527948 15.05003357 36.4727478 C12.55429553 36.53204824 10.05851011 36.5787285 7.5625 36.625 C5.86000704 36.66322551 4.15753248 36.70227984 2.45507812 36.7421875 C-1.69646341 36.83770828 -5.84809533 36.92191969 -10 37 C-9.67 38.65 -9.34 40.3 -9 42 C-8.360625 42.103125 -7.72125 42.20625 -7.0625 42.3125 C-2.93522674 43.23903073 1.00642949 44.61660629 5 46 C5.10826289 48.4178712 5.18739789 50.83087556 5.25 53.25 C5.30027344 54.27287109 5.30027344 54.27287109 5.3515625 55.31640625 C5.41703593 58.68828787 5.23481884 60.65646873 3.3125 63.46875 C0.53112067 65.31047415 -0.94847471 65.42376449 -4.25 65.25 C-5.14203125 65.21390625 -6.0340625 65.1778125 -6.953125 65.140625 C-7.62859375 65.09421875 -8.3040625 65.0478125 -9 65 C-9 67.64 -9 70.28 -9 73 C-8.15695313 73.06058594 -7.31390625 73.12117188 -6.4453125 73.18359375 C-4.80175781 73.30927734 -4.80175781 73.30927734 -3.125 73.4375 C-1.48917969 73.55931641 -1.48917969 73.55931641 0.1796875 73.68359375 C3 74 3 74 5 75 C7.16573479 75.10479362 9.33273487 75.18403976 11.5 75.25 C18.10594651 75.67180091 23.6410817 76.96037967 29 81 C30.22886899 84.68660697 30.14560987 88.10062975 30.125 91.9375 C30.12886719 92.65357422 30.13273437 93.36964844 30.13671875 94.10742188 C30.13035293 97.54178156 30.07950442 100.71864926 29 104 C28.34 104 27.68 104 27 104 C26.979375 104.7425 26.95875 105.485 26.9375 106.25 C25.79051203 109.61449805 24.22887289 110.52978419 21.15991211 112.1796875 C17.12200502 113.71324326 13.07782331 113.49892727 8.8125 113.375 C7.88139404 113.35993408 6.95028809 113.34486816 5.9909668 113.3293457 C-0.80759319 113.16534665 -7.3778308 112.61785924 -14 111 C-15.35158203 110.67322266 -15.35158203 110.67322266 -16.73046875 110.33984375 C-21.82094087 108.96383725 -25.89670094 107.34742818 -30 104 C-30 103.34 -30 102.68 -30 102 C-30.598125 101.979375 -31.19625 101.95875 -31.8125 101.9375 C-34.62654135 100.73148228 -35.27999193 99.21598175 -36.39135742 96.43774414 C-37.78807935 90.84357309 -37.34268522 84.97794672 -37.25 79.25 C-37.23736972 77.83325911 -37.2255797 76.4165105 -37.21459961 74.99975586 C-37.12351862 65.51828518 -36.88429677 56.03877133 -36.5625 46.5625 C-36.52350586 45.4084668 -36.48451172 44.25443359 -36.44433594 43.06542969 C-36.40211914 42.01387695 -36.35990234 40.96232422 -36.31640625 39.87890625 C-36.27974854 38.9566626 -36.24309082 38.03441895 -36.20532227 37.08422852 C-36 35 -36 35 -35 34 C-34.85380562 32.04879486 -34.77259222 30.09265211 -34.71875 28.13671875 C-34.68136719 26.93982422 -34.64398438 25.74292969 -34.60546875 24.50976562 C-34.57066406 23.24841797 -34.53585938 21.98707031 -34.5 20.6875 C-34.43106229 18.21212557 -34.35830734 15.73685372 -34.28125 13.26171875 C-34.23581055 11.60595825 -34.23581055 11.60595825 -34.18945312 9.91674805 C-34.02947116 7.45372676 -33.70583574 5.35361927 -33 3 C-32.01 3 -31.02 3 -30 3 C-29.67 2.01 -29.34 1.02 -29 0 C-22.0667374 -3.4666313 -7.47499113 -1.1969019 0 0 Z " fill="#010101" transform="translate(171,102)"/>
<path d="M0 0 C3.17015024 2.56515973 5.82237975 5.72785172 8.16015625 9.0546875 C8.16015625 9.7146875 8.16015625 10.3746875 8.16015625 11.0546875 C8.82015625 11.0546875 9.48015625 11.0546875 10.16015625 11.0546875 C13.16015625 16.8046875 13.16015625 16.8046875 13.16015625 19.0546875 C14.81015625 19.0546875 16.46015625 19.0546875 18.16015625 19.0546875 C18.49015625 17.7346875 18.82015625 16.4146875 19.16015625 15.0546875 C20.15015625 15.0546875 21.14015625 15.0546875 22.16015625 15.0546875 C22.49015625 13.4046875 22.82015625 11.7546875 23.16015625 10.0546875 C23.82015625 10.0546875 24.48015625 10.0546875 25.16015625 10.0546875 C25.38703125 9.4771875 25.61390625 8.8996875 25.84765625 8.3046875 C28.5411026 3.6873509 32.12940875 1.86091797 37.09765625 0.3046875 C44.4424327 -1.53150661 53.8800412 -2.5764849 61.16015625 0.0546875 C63.91015625 2.4921875 63.91015625 2.4921875 66.16015625 5.0546875 C66.16015625 5.7146875 66.16015625 6.3746875 66.16015625 7.0546875 C66.82015625 7.0546875 67.48015625 7.0546875 68.16015625 7.0546875 C71.72655978 14.4276888 72.72520581 20.56500107 72.5859375 28.703125 C72.58100533 30.34204208 72.58100533 30.34204208 72.57597351 32.0140686 C72.56034455 35.48635684 72.51646206 38.95765348 72.47265625 42.4296875 C72.46114448 44.72004397 72.45136538 47.01040984 72.44335938 49.30078125 C72.38819084 59.6316565 72.20749281 69.95609342 71.74609375 80.27734375 C71.69773125 81.46564285 71.69773125 81.46564285 71.64839172 82.677948 C71.32458284 88.97088594 70.63204362 95.66137204 67.16015625 101.0546875 C62.39273315 104.31623295 58.16630806 104.51722962 52.59765625 104.4296875 C51.85580078 104.44128906 51.11394531 104.45289063 50.34960938 104.46484375 C45.83296853 104.4407121 42.77733875 104.03195876 39.16015625 101.0546875 C34.57000282 93.35997343 36.03252192 82.54746095 36.09765625 73.9296875 C36.10216797 72.78242188 36.10667969 71.63515625 36.11132812 70.453125 C36.12299286 67.65358937 36.13936011 64.85416764 36.16015625 62.0546875 C34.84015625 62.3846875 33.52015625 62.7146875 32.16015625 63.0546875 C32.16015625 64.0446875 32.16015625 65.0346875 32.16015625 66.0546875 C28.86015625 66.0546875 25.56015625 66.0546875 22.16015625 66.0546875 C22.16015625 65.0646875 22.16015625 64.0746875 22.16015625 63.0546875 C20.84015625 62.7246875 19.52015625 62.3946875 18.16015625 62.0546875 C18.16015625 61.3946875 18.16015625 60.7346875 18.16015625 60.0546875 C16.84015625 59.7246875 15.52015625 59.3946875 14.16015625 59.0546875 C12.34833884 64.54148678 11.7911539 69.54695259 11.59765625 75.3046875 C11.28073649 83.69294679 11.28073649 83.69294679 10.16015625 87.0546875 C9.50015625 87.0546875 8.84015625 87.0546875 8.16015625 87.0546875 C8.05703125 87.9415625 7.95390625 88.8284375 7.84765625 89.7421875 C7.13919138 93.15570006 6.27132927 95.29392278 4.16015625 98.0546875 C3.17015625 98.0546875 2.18015625 98.0546875 1.16015625 98.0546875 C1.16015625 98.7146875 1.16015625 99.3746875 1.16015625 100.0546875 C-5.93310696 101.77799657 -12.54953351 102.3041658 -19.83984375 102.0546875 C-20.12859375 101.41660156 -20.41734375 100.77851563 -20.71484375 100.12109375 C-22.0904707 97.59433452 -23.29041403 97.24973268 -25.83984375 96.0546875 C-33.43150851 84.66719037 -31.27703271 64.98498238 -31.17602539 51.90600586 C-31.15199865 48.56926087 -31.15554611 45.23329641 -31.16210938 41.89648438 C-31.15654434 39.76301607 -31.14944192 37.62955109 -31.140625 35.49609375 C-31.14153641 34.50452774 -31.14244781 33.51296173 -31.14338684 32.49134827 C-31.12908882 31.1122654 -31.12908882 31.1122654 -31.11450195 29.70532227 C-31.10989456 28.90103287 -31.10528717 28.09674347 -31.10054016 27.26808167 C-30.81094376 24.80931753 -30.00285151 23.21999992 -28.83984375 21.0546875 C-28.53494718 18.60091058 -28.53494718 18.60091058 -28.46484375 16.0546875 C-28.07917934 11.35784591 -28.07917934 11.35784591 -25.96484375 8.6796875 C-25.26359375 8.1434375 -24.56234375 7.6071875 -23.83984375 7.0546875 C-23.34484375 6.3121875 -22.84984375 5.5696875 -22.33984375 4.8046875 C-21.84484375 4.2271875 -21.34984375 3.6496875 -20.83984375 3.0546875 C-19.51984375 3.0546875 -18.19984375 3.0546875 -16.83984375 3.0546875 C-16.83984375 2.3946875 -16.83984375 1.7346875 -16.83984375 1.0546875 C-11.92015937 -1.56914417 -5.11703646 -2.62913551 0 0 Z M-12.96484375 10.2421875 C-13.64804687 10.66886719 -14.33125 11.09554687 -15.03515625 11.53515625 C-19.05414867 14.91911307 -19.96466951 20.04851155 -20.83984375 25.0546875 C-21.12328386 29.22139432 -21.12038038 33.37565533 -21.10546875 37.55078125 C-21.1073822 38.73889908 -21.10929565 39.92701691 -21.11126709 41.15113831 C-21.11262345 43.65487887 -21.10896553 46.1586266 -21.10058594 48.66235352 C-21.08988849 52.47623644 -21.10049541 56.28964733 -21.11328125 60.10351562 C-21.11195937 62.54427186 -21.1093964 64.98502781 -21.10546875 67.42578125 C-21.10951721 68.55729111 -21.11356567 69.68880096 -21.11773682 70.854599 C-21.08042138 77.21542021 -20.67883597 82.94290444 -18.83984375 89.0546875 C-16.39087742 90.58605706 -16.39087742 90.58605706 -13.83984375 91.0546875 C-13.50984375 91.7146875 -13.17984375 92.3746875 -12.83984375 93.0546875 C-8.87814648 92.26234805 -5.3890683 90.99062816 -1.83984375 89.0546875 C0.42027068 85.04480706 1.16015625 82.66780039 1.16015625 78.0546875 C1.82015625 78.0546875 2.48015625 78.0546875 3.16015625 78.0546875 C3.49015625 70.1346875 3.82015625 62.2146875 4.16015625 54.0546875 C4.82015625 54.0546875 5.48015625 54.0546875 6.16015625 54.0546875 C6.82015625 52.7346875 7.48015625 51.4146875 8.16015625 50.0546875 C12.78015625 50.0546875 17.40015625 50.0546875 22.16015625 50.0546875 C22.16015625 50.7146875 22.16015625 51.3746875 22.16015625 52.0546875 C24.1219105 54.13448018 24.1219105 54.13448018 27.16015625 55.0546875 C29.27226977 54.28910264 31.08043396 53.24227907 33.0234375 52.1171875 C36.35937874 50.4583648 39.46955145 50.31830213 43.16015625 50.0546875 C43.65515625 52.0346875 43.65515625 52.0346875 44.16015625 54.0546875 C44.82015625 54.0546875 45.48015625 54.0546875 46.16015625 54.0546875 C46.15230103 55.81897095 46.15230103 55.81897095 46.14428711 57.61889648 C46.12623962 61.96670781 46.11472517 66.3145158 46.10522461 70.66235352 C46.10018381 72.5471248 46.09335127 74.43189215 46.0847168 76.31665039 C46.07264008 79.01970386 46.06692557 81.72270581 46.0625 84.42578125 C46.05733871 85.27369736 46.05217743 86.12161346 46.04685974 86.995224 C46.0466643 89.01539818 46.09809414 91.03546684 46.16015625 93.0546875 C47.18224537 94.29770735 47.18224537 94.29770735 49.33984375 94.1875 C50.22929688 94.18492187 51.11875 94.18234375 52.03515625 94.1796875 C52.91945313 94.18226563 53.80375 94.18484375 54.71484375 94.1875 C57.29921916 94.15517335 57.29921916 94.15517335 60.16015625 93.0546875 C60.29292969 92.18585938 60.42570312 91.31703125 60.5625 90.421875 C60.73910156 89.26945312 60.91570312 88.11703125 61.09765625 86.9296875 C61.27167969 85.79273438 61.44570312 84.65578125 61.625 83.484375 C61.95288511 81.3830383 62.3009776 79.28457949 62.68353271 77.19250488 C63.13558271 74.21646564 63.299579 71.42666917 63.32128906 68.41992188 C63.33089661 67.33859985 63.34050415 66.25727783 63.35040283 65.14318848 C63.35465271 63.98992065 63.35890259 62.83665283 63.36328125 61.6484375 C63.36898132 60.45037476 63.3746814 59.25231201 63.3805542 58.01794434 C63.38998159 55.48967364 63.39652917 52.96139079 63.40039062 50.43310547 C63.41012155 46.56846808 63.44117746 42.70435704 63.47265625 38.83984375 C63.4791844 36.38021148 63.48443561 33.92057542 63.48828125 31.4609375 C63.50680145 29.73103577 63.50680145 29.73103577 63.5256958 27.96618652 C63.50476419 20.42434479 62.77610991 15.85314955 57.47265625 10.1796875 C53.44569592 7.59635446 50.73565033 7.36404688 46.16015625 8.0546875 C45.25394531 8.18875 44.34773438 8.3228125 43.4140625 8.4609375 C38.33899854 9.5076264 34.9881357 10.55143974 31.84765625 14.8046875 C31.1825 15.85849609 31.1825 15.85849609 30.50390625 16.93359375 C29.12768463 19.10594357 27.59387958 20.86005528 25.84765625 22.7421875 C23.49826384 25.41669166 22.38180946 27.39740959 22.16015625 31.0546875 C13.93158482 31.68765453 13.93158482 31.68765453 10.72265625 29.0546875 C10.20703125 28.3946875 9.69140625 27.7346875 9.16015625 27.0546875 C8.50015625 27.0546875 7.84015625 27.0546875 7.16015625 27.0546875 C6.83015625 25.7346875 6.50015625 24.4146875 6.16015625 23.0546875 C5.50015625 23.0546875 4.84015625 23.0546875 4.16015625 23.0546875 C3.83015625 21.7346875 3.50015625 20.4146875 3.16015625 19.0546875 C2.50015625 19.0546875 1.84015625 19.0546875 1.16015625 19.0546875 C1.09828125 18.3328125 1.03640625 17.6109375 0.97265625 16.8671875 C-0.10682449 13.1305234 -1.88541244 11.52816487 -4.83984375 9.0546875 C-8.32313673 7.63715109 -9.86909451 8.2352474 -12.96484375 10.2421875 Z " fill="#020202" transform="translate(51.83984375,108.9453125)"/>
<path d="M0 0 C0.67933594 0.22816406 1.35867188 0.45632812 2.05859375 0.69140625 C7.60583526 2.6446603 12.78578037 5.2967263 18 8 C18 8.66 18 9.32 18 10 C18.60714844 10.09152344 19.21429688 10.18304688 19.83984375 10.27734375 C23.79396474 11.60015095 25.17099373 15.45899459 27 19 C28.13831097 21.62570398 29.07018186 24.29507449 30 27 C30.4021875 27.99 30.4021875 27.99 30.8125 29 C31.2146875 29.99 31.2146875 29.99 31.625 31 C31.86476563 31.5775 32.10453125 32.155 32.3515625 32.75 C34.0492893 38.64090746 34.17242508 44.88682032 34.23828125 50.98046875 C34.246353 51.71517899 34.25442474 52.44988922 34.26274109 53.2068634 C34.27647213 54.75222492 34.28724253 56.29761537 34.29516602 57.84301758 C34.30665651 59.39714687 34.32706194 60.95123761 34.35668945 62.50512695 C34.55092395 72.73444892 33.7794872 81.33204917 30 91 C29.73243896 91.71728271 29.46487793 92.43456543 29.18920898 93.17358398 C28.53558836 94.84671918 27.80286654 96.48840027 27.0625 98.125 C26.59972656 99.17945313 26.13695312 100.23390625 25.66015625 101.3203125 C23.78295123 104.35034225 22.10468511 105.3530336 19 107 C18.67 107.66 18.34 108.32 18 109 C17.01 109 16.02 109 15 109 C15 109.66 15 110.32 15 111 C14.32453125 111.26554687 13.6490625 111.53109375 12.953125 111.8046875 C12.06109375 112.15789062 11.1690625 112.51109375 10.25 112.875 C9.36828125 113.22304687 8.4865625 113.57109375 7.578125 113.9296875 C5.08361728 114.91752337 5.08361728 114.91752337 3.12280273 115.99755859 C-4.11423855 119.41507343 -12.47309508 119.31430134 -20.3125 119.25 C-21.75592773 119.26160156 -21.75592773 119.26160156 -23.22851562 119.2734375 C-31.81310686 119.24967393 -31.81310686 119.24967393 -36 117 C-36 116.34 -36 115.68 -36 115 C-36.66 115 -37.32 115 -38 115 C-40.8394052 111.32547562 -42 109.73113419 -42 105 C-42.66 105 -43.32 105 -44 105 C-44.16081055 104.26475098 -44.32162109 103.52950195 -44.48730469 102.77197266 C-45.23276011 99.38764757 -45.99128764 96.00637671 -46.75 92.625 C-47.00265625 91.46871094 -47.2553125 90.31242187 -47.515625 89.12109375 C-49.26382525 81.38530763 -51.44574451 74.10851097 -55 67 C-56.18380419 59.01777747 -56.21839968 51.05808138 -56.25 43 C-56.270625 41.68515625 -56.29125 40.3703125 -56.3125 39.015625 C-56.34927313 29.85911456 -55.13539742 23.1001704 -51 15 C-50.34 15 -49.68 15 -49 15 C-48.34 13.68 -47.68 12.36 -47 11 C-46.34 11 -45.68 11 -45 11 C-44.896875 10.401875 -44.79375 9.80375 -44.6875 9.1875 C-43.8550317 6.53873724 -43.20520332 5.69065588 -41 4 C-37.86328125 3.26953125 -37.86328125 3.26953125 -34.3125 2.8125 C-33.13300781 2.65394531 -31.95351563 2.49539062 -30.73828125 2.33203125 C-29.83464844 2.22246094 -28.93101562 2.11289063 -28 2 C-28 1.34 -28 0.68 -28 0 C-17.78121092 -4.05852616 -10.28731726 -3.62983389 0 0 Z M-21 9 C-24.51454521 10.04819769 -28.05811233 10.92049137 -31.6171875 11.8046875 C-35.11255753 13.03977206 -36.73911997 14.10289242 -39 17 C-39 17.66 -39 18.32 -39 19 C-39.99 19.33 -40.98 19.66 -42 20 C-47.01417632 26.04597433 -46.54801881 32.65595448 -46.41162109 40.16845703 C-46.3753289 42.23130513 -46.37060124 44.29233569 -46.37109375 46.35546875 C-46.32013319 56.03448019 -45.63714355 64.98310563 -42 74 C-41.62406934 75.9924325 -41.28020455 77.9918674 -41 80 C-40.34 80 -39.68 80 -39 80 C-38.67 82.97 -38.34 85.94 -38 89 C-37.34 89 -36.68 89 -36 89 C-35.79375 90.155 -35.5875 91.31 -35.375 92.5 C-34.11767247 97.60167428 -31.29079859 101.01419814 -28 105 C-27.59007812 105.72574219 -27.18015625 106.45148438 -26.7578125 107.19921875 C-25.03128606 109.3187284 -25.03128606 109.3187284 -21.76953125 109.56640625 C-8.55287987 109.55335921 4.26214404 107.34038084 15.01171875 99.01171875 C20.12980238 93.83330407 22.31870864 87.25271071 23.54296875 80.203125 C24 78 24 78 25.03515625 75.44140625 C26.4173535 70.51138284 26.28916368 65.78204178 26.25 60.6875 C26.25773437 59.69298828 26.26546875 58.69847656 26.2734375 57.67382812 C26.59859391 47.711304 26.59859391 47.711304 23 39 C22.72595105 37.69230989 22.48127054 36.3784294 22.25 35.0625 C20.60087259 27.40321935 17.31889577 19.86068905 11 15 C9.68 15 8.36 15 7 15 C7 14.34 7 13.68 7 13 C4.06030946 11.04020631 2.44977414 10.51679931 -0.9375 9.875 C-1.79214844 9.70742187 -2.64679688 9.53984375 -3.52734375 9.3671875 C-6.24280686 8.90207437 -6.24280686 8.90207437 -10 9 C-10 8.34 -10 7.68 -10 7 C-11.45792884 6.94600264 -12.91642712 6.90720823 -14.375 6.875 C-15.59316406 6.84019531 -15.59316406 6.84019531 -16.8359375 6.8046875 C-19.21342243 6.78629949 -19.21342243 6.78629949 -21 9 Z " fill="#020202" transform="translate(473,113)"/>
<path d="M0 0 C1.37488287 -0.02749766 2.74993391 -0.0466164 4.125 -0.0625 C5.27355469 -0.07990234 5.27355469 -0.07990234 6.4453125 -0.09765625 C9 0 9 0 11.73828125 0.46875 C15.8451545 1.13765391 19.90973659 1.36366505 24.0625 1.5625 C25.3769812 1.62836304 25.3769812 1.62836304 26.71801758 1.69555664 C32.88267829 1.97594308 39.0182155 2.00784734 45.1875 1.9375 C57.18105158 1.81032344 69.0675628 2.88323674 81 4 C81 4.66 81 5.32 81 6 C81.66 6 82.32 6 83 6 C83.3738689 12.10652538 82.66550265 16.82142606 78.62890625 21.63500977 C75.26786623 24.84643515 72.87440792 26.38845045 68.16015625 26.5859375 C66.45993954 26.54655024 64.76018897 26.47569942 63.0625 26.375 C61.75055664 26.33439453 61.75055664 26.33439453 60.41210938 26.29296875 C58.27365888 26.22285562 56.13649305 26.11525537 54 26 C53.690625 26.639375 53.38125 27.27875 53.0625 27.9375 C52 30 52 30 51 31 C50.89870001 34.03006145 50.86140263 37.03255288 50.875 40.0625 C50.87113281 40.89716797 50.86726563 41.73183594 50.86328125 42.59179688 C50.86521484 43.83219727 50.86521484 43.83219727 50.8671875 45.09765625 C50.86887939 46.21926147 50.86887939 46.21926147 50.87060547 47.36352539 C50.97365707 50.19631459 50.97365707 50.19631459 51.49560547 53.76708984 C52.05700829 58.0629914 52.17846796 62.30028163 52.203125 66.62890625 C52.20882507 67.42223862 52.21452515 68.21557098 52.22039795 69.03294373 C52.22977732 70.69764906 52.23635352 72.36237237 52.24023438 74.02709961 C52.2499881 76.55941027 52.28109687 79.09092428 52.3125 81.62304688 C52.31902738 83.24999524 52.32427889 84.87694933 52.328125 86.50390625 C52.3404718 87.25201065 52.3528186 88.00011505 52.36553955 88.77088928 C52.34455299 93.76678267 51.74019571 99.25980429 48 103 C45.87691847 103.09942806 43.75040328 103.12969184 41.625 103.125 C40.46226562 103.12757813 39.29953125 103.13015625 38.1015625 103.1328125 C35 103 35 103 32 102 C32 101.34 32 100.68 32 100 C30.68 99.67 29.36 99.34 28 99 C27.77646625 90.4932991 27.79834957 82.27627716 30 74 C30.33 73.67 30.66 73.34 31 73 C31.23438958 71.0579149 31.46693784 69.11557903 31.6875 67.171875 C32.140826 64.02125931 33.1054404 61.05202686 34 58 C34.51083851 55.48144736 34.9849122 52.95933002 35.4375 50.4296875 C36 48 36 48 37.03515625 45.5234375 C39.03766634 40.28610341 39.02010644 34.51724107 36.9140625 29.3203125 C34.7946324 25.41837235 34.7946324 25.41837235 32 22 C28.20763756 21.55140047 24.41656235 21.17799741 20.61328125 20.83789062 C19.81535156 20.75861328 19.01742187 20.67933594 18.1953125 20.59765625 C17.46328613 20.53070557 16.73125977 20.46375488 15.97705078 20.39477539 C14 20 14 20 11 18 C8.66842508 17.65458149 6.33491639 17.32205743 4 17 C2.32102373 16.36497173 0.6513799 15.70368078 -1 15 C-1.02693575 12.87506859 -1.04636628 10.75004088 -1.0625 8.625 C-1.07410156 7.44164063 -1.08570313 6.25828125 -1.09765625 5.0390625 C-1 2 -1 2 0 0 Z " fill="#FDFDFD" transform="translate(233,111)"/>
<path d="M0 0 C2.29141286 -0.05384521 4.58318188 -0.09272087 6.875 -0.125 C8.78925781 -0.15980469 8.78925781 -0.15980469 10.7421875 -0.1953125 C14 0 14 0 16 2 C18.4915587 2.3706451 20.93297634 2.64849047 23.4375 2.875 C39.70715462 4.68294252 39.70715462 4.68294252 44.59375 9.60546875 C46.50949523 12.5373356 47.00857331 14.77709401 46.875 18.25 C45.74475504 21.80219846 44.61321819 23.60098167 41.47265625 25.64453125 C37.04718161 27.37190999 33.14850079 27.56233063 28.4375 27.6875 C27.11492187 27.73982788 27.11492187 27.73982788 25.765625 27.79321289 C19.6811532 28.01471875 13.61713075 28.0400372 7.53125 27.83984375 C4.85102866 28.00942566 3.28253832 28.627247 1 30 C0.94602665 32.4377963 0.90634384 34.87439685 0.875 37.3125 C0.85824219 38.00279297 0.84148437 38.69308594 0.82421875 39.40429688 C0.78782206 43.17135396 0.85621136 44.78431704 3 48 C6.05429073 49.21284876 6.05429073 49.21284876 9 50 C9 50.33 9 50.66 9 51 C8.14535156 51.19335938 7.29070312 51.38671875 6.41015625 51.5859375 C5.30542969 51.84632813 4.20070313 52.10671875 3.0625 52.375 C1.96035156 52.63023437 0.85820312 52.88546875 -0.27734375 53.1484375 C-1.17582031 53.42945313 -2.07429688 53.71046875 -3 54 C-4.41164959 56.82329919 -4.13206965 59.2290079 -4.125 62.375 C-4.12757813 63.51710937 -4.13015625 64.65921875 -4.1328125 65.8359375 C-4.02317836 68.44780965 -3.92926202 70.56785743 -3 73 C-0.7193293 74.21297649 -0.7193293 74.21297649 2 75 C2.72727295 75.3304834 3.4545459 75.6609668 4.20385742 76.00146484 C7.65706642 77.23464609 10.83563521 77.53141026 14.48828125 77.8515625 C15.19147995 77.91532074 15.89467865 77.97907898 16.6191864 78.04476929 C18.84972147 78.24535915 21.0810124 78.43533198 23.3125 78.625 C24.83144261 78.75971488 26.3503238 78.89512422 27.86914062 79.03125 C31.57875017 79.36220716 35.28911261 79.68365374 39 80 C40.36385199 84.09155598 39.57884377 86.01856788 38 90 C36.13239029 92.13974712 34.4011058 93.38292874 32 95 C31.01 95 30.02 95 29 95 C29 95.66 29 96.32 29 97 C21.98449109 97.25306445 15.46935839 96.69465799 8.55859375 95.5 C3.81601852 94.83364475 -0.92153434 94.62049252 -5.70776367 94.51782227 C-10.60686756 94.3264558 -10.60686756 94.3264558 -12.7734375 92.52734375 C-13.17820312 92.02332031 -13.58296875 91.51929688 -14 91 C-14.99 90.67 -15.98 90.34 -17 90 C-17.6875 87.9375 -17.6875 87.9375 -18 86 C-18.99 86 -19.98 86 -21 86 C-20.43828807 68.47458787 -17.33117076 50.9686964 -13 34 C-12.35092534 31.44284687 -11.70344862 28.88530768 -11.05834961 26.32714844 C-10.61435399 24.57147017 -10.16618192 22.81684092 -9.71313477 21.06347656 C-8.77448507 17.37902986 -7.97411519 13.81808732 -7.4375 10.046875 C-6.96539275 6.75898524 -6.33038563 5.33038563 -4 3 C-3.01 2.67 -2.02 2.34 -1 2 C-0.67 1.34 -0.34 0.68 0 0 Z " fill="#FDFDFD" transform="translate(350,120)"/>
<path d="M0 0 C5.65996836 0.74099506 11.31778057 1.39964443 17 1.94921875 C18.85419556 2.13242676 18.85419556 2.13242676 20.74584961 2.31933594 C23.20944528 2.56093718 25.67380262 2.7949181 28.13891602 3.02050781 C34.57016714 3.66655724 40.01808905 4.62321566 45.9375 7.25 C45.2775 9.23 44.6175 11.21 43.9375 13.25 C43.2775 13.25 42.6175 13.25 41.9375 13.25 C41.9375 13.91 41.9375 14.57 41.9375 15.25 C38.16047032 17.71424041 34.34049968 17.5459831 29.98828125 17.55859375 C28.4016893 17.58377019 26.81510084 17.60916796 25.22851562 17.63476562 C22.74488369 17.66338059 20.26131299 17.68741398 17.77758789 17.70629883 C5.06155261 17.73250215 5.06155261 17.73250215 -7.0625 21.25 C-6.94908509 23.73020497 -6.82235314 26.20844969 -6.6875 28.6875 C-6.6565625 29.39455078 -6.625625 30.10160156 -6.59375 30.83007812 C-6.48969371 32.64239188 -6.28330108 34.44817988 -6.0625 36.25 C-5.4025 36.58 -4.7425 36.91 -4.0625 37.25 C-3.7325 38.24 -3.4025 39.23 -3.0625 40.25 C-1.33829374 41.41551482 -1.33829374 41.41551482 0.75 42.3125 C1.43707031 42.63347656 2.12414062 42.95445312 2.83203125 43.28515625 C3.87423828 43.76275391 3.87423828 43.76275391 4.9375 44.25 C6.27313214 44.91204909 7.60716958 45.57736102 8.9375 46.25 C6.9271446 48.2603554 3.20504198 48.11199466 0.48046875 48.5546875 C-2.48610166 49.3658235 -3.99409832 49.94914033 -6.0625 52.25 C-6.44470684 54.89535283 -6.57822235 57.05569635 -6.5 59.6875 C-6.49806641 61.66556641 -6.49806641 61.66556641 -6.49609375 63.68359375 C-6.04364944 67.40505008 -5.76915975 68.7378993 -3.0625 71.25 C3.32148129 75.73435759 11.39996169 75.04299864 18.90429688 75.421875 C19.98904297 75.48890625 21.07378906 75.5559375 22.19140625 75.625 C23.66589233 75.69847656 23.66589233 75.69847656 25.17016602 75.7734375 C28.31950875 76.31578571 30.31573911 77.46090008 32.9375 79.25 C32.87720033 81.16752953 32.78833293 83.08417426 32.6875 85 C32.64109375 86.06734375 32.5946875 87.1346875 32.546875 88.234375 C31.79885187 91.93613048 31.06398035 93.13710441 27.9375 95.25 C25.26868081 95.63168923 23.09198563 95.7730477 20.4375 95.6875 C19.37607788 95.6709436 19.37607788 95.6709436 18.29321289 95.65405273 C12.81517771 95.48164757 7.78250583 94.50880455 2.51171875 92.984375 C-0.67673462 92.0747707 -3.7738439 91.62371092 -7.0625 91.25 C-7.0625 90.59 -7.0625 89.93 -7.0625 89.25 C-7.825625 88.96125 -8.58875 88.6725 -9.375 88.375 C-12.0625 87.25 -12.0625 87.25 -15.0625 85.25 C-16.2231096 81.76817121 -16.20560083 78.68318203 -16.1796875 75.0625 C-16.17661591 74.29131836 -16.17354431 73.52013672 -16.17037964 72.72558594 C-16.08089742 60.65137495 -15.69438501 48.58074964 -15.31787109 36.51269531 C-15.20630627 32.9196881 -15.10651937 29.32644592 -15.00906563 25.73303223 C-14.9313961 22.94652365 -14.8452027 20.16032649 -14.7566185 17.37414551 C-14.69624887 15.4055344 -14.64506421 13.43664854 -14.59402466 11.46777344 C-14.55413422 10.28473633 -14.51424377 9.10169922 -14.47314453 7.8828125 C-14.44205597 6.84012207 -14.41096741 5.79743164 -14.37893677 4.72314453 C-14.0625 2.25 -14.0625 2.25 -12.0625 0.25 C-7.8729134 -1.03910357 -4.30358355 -0.57789728 0 0 Z " fill="#FDFDFD" transform="translate(159.0625,110.75)"/>
<path d="M0 0 C1.2890625 0.10570312 2.578125 0.21140625 3.90625 0.3203125 C7.13311951 0.81837279 9.63536961 1.32510669 12.5 2.875 C12.995 4.36 12.995 4.36 13.5 5.875 C14.49 5.875 15.48 5.875 16.5 5.875 C21.33439668 12.56878001 20.74601665 19.48165926 20.8125 27.4375 C20.84150391 28.56736328 20.87050781 29.69722656 20.90039062 30.86132812 C20.95860173 38.63922701 19.67370098 44.77161333 16.5 51.875 C15.84 51.875 15.18 51.875 14.5 51.875 C14.231875 52.6175 13.96375 53.36 13.6875 54.125 C11.97900842 58.08150682 10.4900213 60.2149858 6.875 62.625 C2.586914 64.21318 -0.98167532 64.58621777 -5.5 63.875 C-10.47238028 61.44405853 -11.78343582 57.48822788 -13.59375 52.5390625 C-13.8928125 51.65992188 -14.191875 50.78078125 -14.5 49.875 C-14.7784375 49.05773437 -15.056875 48.24046875 -15.34375 47.3984375 C-15.83520571 45.92898493 -16.31823248 44.45665934 -16.7890625 42.98046875 C-17.46703649 40.82407953 -17.46703649 40.82407953 -18.56640625 38.69140625 C-19.90347853 34.65781163 -19.82901755 30.846885 -19.8125 26.625 C-19.82861328 25.81675781 -19.84472656 25.00851563 -19.86132812 24.17578125 C-19.86606755 18.25149568 -18.68096488 13.37073442 -16.5 7.875 C-15.84 7.875 -15.18 7.875 -14.5 7.875 C-14.273125 7.2975 -14.04625 6.72 -13.8125 6.125 C-10.34795234 0.18577545 -6.57539379 -0.61808702 0 0 Z " fill="#020202" transform="translate(463.5,146.125)"/>
<path d="M0 0 C2.97 0 5.94 0 9 0 C9.144375 1.093125 9.28875 2.18625 9.4375 3.3125 C10.13055538 5.64453771 10.51510201 6.70105803 12.609375 7.9921875 C19.84824758 10.41421629 26.97900249 10.55173406 34.5625 10.6875 C36.50479492 10.73874023 36.50479492 10.73874023 38.48632812 10.79101562 C41.65746544 10.87292692 44.82834594 10.94226397 48 11 C47.01 13.97 46.02 16.94 45 20 C44.34 20 43.68 20 43 20 C42.79375 20.7425 42.5875 21.485 42.375 22.25 C39.99800958 27.00398084 35.60593048 28.90091775 30.8046875 30.703125 C15.88690852 35.60889989 1.58174495 35.6631977 -14 35 C-14 34.01 -14 33.02 -14 32 C-14.556875 31.95875 -15.11375 31.9175 -15.6875 31.875 C-18.559579 30.78826741 -19.74300863 29.05424493 -21.578125 26.6640625 C-23.09667641 24.88685673 -24.70857855 23.60567068 -26.5625 22.1875 C-30.5800333 18.88049115 -32.42285364 14.89797008 -34 10 C-34 9.34 -34 8.68 -34 8 C-24.1 8 -14.2 8 -4 8 C-2.68 5.36 -1.36 2.72 0 0 Z " fill="#FDFDFD" transform="translate(304,362)"/>
<path d="M0 0 C3.3 0 6.6 0 10 0 C10.2475 1.11375 10.495 2.2275 10.75 3.375 C11.61005339 7.04615198 11.61005339 7.04615198 14.125 8.4375 C15.053125 8.7159375 15.053125 8.7159375 16 9 C16 9.66 16 10.32 16 11 C16.59683594 10.98839844 17.19367188 10.97679687 17.80859375 10.96484375 C26.56810313 10.87373444 35.26438425 11.42650119 44 12 C43.25 19.625 43.25 19.625 41 23 C38.57421875 23.66015625 38.57421875 23.66015625 35.6875 24.0625 C31.69934894 24.60345922 31.69934894 24.60345922 27.97241211 26.01196289 C23.54693606 27.48300203 19.25226546 27.32527771 14.6171875 27.3359375 C13.10211105 27.3459227 13.10211105 27.3459227 11.556427 27.35610962 C9.41979793 27.36622255 7.28313736 27.37092706 5.14648438 27.37060547 C1.90700877 27.374957 -1.3310797 27.41123201 -4.5703125 27.44921875 C-6.65364122 27.4550918 -8.73697635 27.45905792 -10.8203125 27.4609375 C-12.25372482 27.48249405 -12.25372482 27.48249405 -13.71609497 27.50448608 C-20.07720387 27.46212537 -29.22313615 26.77686385 -34 22 C-34.04063832 20.33382885 -34.042721 18.66611905 -34 17 C-34.66 17 -35.32 17 -36 17 C-36.33 14.36 -36.66 11.72 -37 9 C-19.675 8.01 -19.675 8.01 -2 7 C-1.34 4.69 -0.68 2.38 0 0 Z " fill="#FEFEFE" transform="translate(171,362)"/>
<path d="M0 0 C0.33 0.66 0.66 1.32 1 2 C1.80179688 1.98839844 2.60359375 1.97679687 3.4296875 1.96484375 C10.50764881 1.90866945 17.55553331 2.03599381 24.625 2.375 C25.39440918 2.40585693 26.16381836 2.43671387 26.95654297 2.46850586 C32.54866141 2.76598529 32.54866141 2.76598529 34.92773438 3.99951172 C37.39665303 5.19150378 39.25995449 5.31060528 41.9921875 5.421875 C42.94480469 5.47859375 43.89742187 5.5353125 44.87890625 5.59375 C46.86775602 5.69747098 48.85745041 5.78614798 50.84765625 5.859375 C55.43500334 6.15653109 59.06606514 6.42799296 62.6328125 9.515625 C65.77024119 13.20552133 65.97913631 17.30566905 66 22 C64.99735107 21.99476318 63.99470215 21.98952637 62.96166992 21.98413086 C59.19133419 21.96583699 55.42100226 21.95448016 51.65063477 21.94506836 C50.02823219 21.94008328 48.405834 21.9332928 46.78344727 21.92456055 C44.43243515 21.9122364 42.08151068 21.90533725 39.73046875 21.90234375 C38.96841125 21.90112518 38.20635376 21.89990662 37.42120361 21.89865112 C32.26215011 21.91946676 27.23081211 22.26713169 22.12084961 23.02758789 C19.44890162 22.99283134 18.40462279 22.17998949 16.375 20.5 C10.40420429 15.98762412 1.96214277 18.12713434 -5 19 C-6.67170089 19.30709124 -8.34172975 19.6271345 -10 20 C-10.65484596 13.9426749 -8.81065009 8.31468381 -6 3 C-2.75 0.8125 -2.75 0.8125 0 0 Z " fill="#FEFEFE" transform="translate(147,305)"/>
<path d="M0 0 C1.61358398 -0.01836914 1.61358398 -0.01836914 3.25976562 -0.03710938 C4.28650391 -0.03904297 5.31324219 -0.04097656 6.37109375 -0.04296875 C7.79119751 -0.04913208 7.79119751 -0.04913208 9.23999023 -0.05541992 C11.5625 0.1875 11.5625 0.1875 13.5625 2.1875 C14.51125 2.455625 15.46 2.72375 16.4375 3 C20.12710184 4.4020487 21.43548789 5.91517368 23.5625 9.1875 C23.5625 9.8475 23.5625 10.5075 23.5625 11.1875 C24.8825 11.5175 26.2025 11.8475 27.5625 12.1875 C27.5625 13.1775 27.5625 14.1675 27.5625 15.1875 C26.593125 15.249375 25.62375 15.31125 24.625 15.375 C20.34335895 15.95171084 17.13068873 17.9111306 13.48046875 20.12890625 C11.5625 21.1875 11.5625 21.1875 9.5625 21.1875 C9.5625 21.8475 9.5625 22.5075 9.5625 23.1875 C8.9025 23.1875 8.2425 23.1875 7.5625 23.1875 C7.5625 22.5275 7.5625 21.8675 7.5625 21.1875 C6.9025 21.1875 6.2425 21.1875 5.5625 21.1875 C5.5625 20.5275 5.5625 19.8675 5.5625 19.1875 C0.20030988 16.85013507 -3.84759451 17.27079536 -9.4375 18.1875 C-10.613125 18.373125 -11.78875 18.55875 -13 18.75 C-13.804375 18.894375 -14.60875 19.03875 -15.4375 19.1875 C-16.0975 18.1975 -16.7575 17.2075 -17.4375 16.1875 C-20.01429229 15.48394885 -22.44239097 14.94232468 -25.0625 14.5 C-25.76890625 14.37044922 -26.4753125 14.24089844 -27.203125 14.10742188 C-28.94589354 13.78948437 -30.69146874 13.48700171 -32.4375 13.1875 C-30.34697367 8.52401819 -28.76361427 6.69394099 -23.8984375 4.8359375 C-22.53934721 4.4022978 -21.17722286 3.9780735 -19.8125 3.5625 C-12.45075307 1.26366453 -7.91761256 0.00472693 0 0 Z " fill="#FDFDFD" transform="translate(315.4375,307.8125)"/>
<path d="M0 0 C4.49371528 -0.23559284 8.65353444 -0.39271912 13 0.875 C18.17806011 6.37668887 17.30403908 15.76175157 17.203125 22.859375 C16.92942369 27.09121829 16.10876267 30.91143764 15 35 C14.34 35 13.68 35 13 35 C12.71125 35.763125 12.4225 36.52625 12.125 37.3125 C11 40 11 40 9 43 C5.875 43.6875 5.875 43.6875 3 44 C0.78145293 39.37802694 -0.38281159 36.23175837 0 31 C-0.66 31 -1.32 31 -2 31 C-5.42028955 22.93788893 -6.27015459 14.91126441 -4.0625 6.375 C-3.40410646 4.9032968 -2.72102599 3.44205197 -2 2 C-1.34 2 -0.68 2 0 2 C0 1.34 0 0.68 0 0 Z " fill="#FCFCFC" transform="translate(458,156)"/>
<path d="M0 0 C1.45599609 0.00966797 1.45599609 0.00966797 2.94140625 0.01953125 C5.4375 0.1875 5.4375 0.1875 7.4375 1.1875 C7.4375 1.8475 7.4375 2.5075 7.4375 3.1875 C8.4275 3.5175 9.4175 3.8475 10.4375 4.1875 C10.4375 4.8475 10.4375 5.5075 10.4375 6.1875 C11.654375 6.22875 12.87125 6.27 14.125 6.3125 C14.80949219 6.33570313 15.49398437 6.35890625 16.19921875 6.3828125 C18.49177176 6.31011994 18.49177176 6.31011994 20.59301758 5.19189453 C24.15568631 3.93390645 27.45848923 3.90037629 31.1875 3.921875 C32.29109863 3.91900482 32.29109863 3.91900482 33.41699219 3.91607666 C34.96680037 3.9147205 36.51662013 3.91837711 38.06640625 3.92675781 C40.42994865 3.93746579 42.79273106 3.92684359 45.15625 3.9140625 C46.66666833 3.9153842 48.1770862 3.9179468 49.6875 3.921875 C50.7408252 3.91580231 50.7408252 3.91580231 51.81542969 3.90960693 C55.79390202 3.9473696 58.85290339 4.43861978 62.4375 6.1875 C62.4375 6.8475 62.4375 7.5075 62.4375 8.1875 C52.5375 8.5175 42.6375 8.8475 32.4375 9.1875 C31.7775 13.8075 31.1175 18.4275 30.4375 23.1875 C26.8075 23.1875 23.1775 23.1875 19.4375 23.1875 C19.046875 20.6484375 18.65625 18.109375 18.265625 15.5703125 C17.65603942 13.10743707 17.65603942 13.10743707 15.74609375 11.90234375 C12.87167441 11.01229512 10.25719252 10.79069525 7.25 10.625 C6.02667969 10.5528125 4.80335938 10.480625 3.54296875 10.40625 C2.88603027 10.37144531 2.2290918 10.33664062 1.55224609 10.30078125 C-0.71973381 10.17907741 -2.99064881 10.04386243 -5.26171875 9.90625 C-9.36154446 9.65863803 -13.4618376 9.42083067 -17.5625 9.1875 C-17.5625 7.5375 -17.5625 5.8875 -17.5625 4.1875 C-16.94761719 4.06632812 -16.33273438 3.94515625 -15.69921875 3.8203125 C-14.89097656 3.65273438 -14.08273438 3.48515625 -13.25 3.3125 C-12.44949219 3.15007812 -11.64898437 2.98765625 -10.82421875 2.8203125 C-0.70719152 -0.01035833 -0.70719152 -0.01035833 0 0 Z " fill="#FDFDFD" transform="translate(151.5625,330.8125)"/>
<path d="M0 0 C8.25 0 16.5 0 25 0 C25 6.27 25 12.54 25 19 C18.93450295 19 13.3764246 18.82310408 7.4375 18 C4.983125 17.67 2.52875 17.34 0 17 C0 11.39 0 5.78 0 0 Z " fill="#FEFEFE" transform="translate(190,347)"/>
<path d="M0 0 C1.8572978 0.24076083 3.71436826 0.48339322 5.5703125 0.734375 C8.0266282 1.03527129 8.0266282 1.03527129 10.6171875 1.078125 C17.2980755 1.35566931 17.2980755 1.35566931 19.5234375 3.3984375 C20.625 5.0625 20.625 5.0625 22 8 C25.96641741 7.59526353 28.93469208 7.03093533 32.5625 5.3125 C36 4 36 4 39.3125 4.5625 C42.27179805 6.14538035 42.85338939 6.94237171 44 10 C44.66 10.66 45.32 11.32 46 12 C45.030625 12.12375 44.06125 12.2475 43.0625 12.375 C42.051875 12.58125 41.04125 12.7875 40 13 C38.78306124 15.43387753 38.68040104 17.41838846 38.4375 20.125 C38.35371094 21.03507812 38.26992188 21.94515625 38.18359375 22.8828125 C38.12300781 23.58148438 38.06242187 24.28015625 38 25 C35.36 25 32.72 25 30 25 C29.84144531 24.32453125 29.68289063 23.6490625 29.51953125 22.953125 C29.16955078 21.61507813 29.16955078 21.61507813 28.8125 20.25 C28.48185547 18.92742187 28.48185547 18.92742187 28.14453125 17.578125 C26.6628912 14.2406423 25.02899409 13.02003006 22 11 C19.0182125 10.36639024 19.0182125 10.36639024 15.82421875 10.390625 C14.08881836 10.34228516 14.08881836 10.34228516 12.31835938 10.29296875 C11.12017578 10.27878906 9.92199219 10.26460938 8.6875 10.25 C7.46998047 10.22035156 6.25246094 10.19070313 4.99804688 10.16015625 C1.99863167 10.08958177 -1.0000117 10.03682136 -4 10 C-3.40490107 5.78230858 -2.85825008 3.23106531 0 0 Z " fill="#FCFCFC" transform="translate(275,329)"/>
<path d="M0 0 C1.26714844 -0.01417969 2.53429687 -0.02835937 3.83984375 -0.04296875 C7.0625 0.1875 7.0625 0.1875 10.0625 2.1875 C11.33224871 7.26649485 10.83217255 10.34993951 9.0625 15.1875 C5.12506167 15.24547565 1.18773281 15.28108789 -2.75 15.3125 C-3.86955078 15.32925781 -4.98910156 15.34601563 -6.14257812 15.36328125 C-7.21572266 15.36972656 -8.28886719 15.37617188 -9.39453125 15.3828125 C-10.8791687 15.39852295 -10.8791687 15.39852295 -12.39379883 15.41455078 C-14.9375 15.1875 -14.9375 15.1875 -17.9375 13.1875 C-18.23046875 10.3671875 -18.23046875 10.3671875 -18.125 7.0625 C-18.09792969 5.96679688 -18.07085937 4.87109375 -18.04296875 3.7421875 C-18.00816406 2.89914062 -17.97335937 2.05609375 -17.9375 1.1875 C-11.96712155 0.40081484 -6.02019846 0.05832819 0 0 Z " fill="#FDFDFD" transform="translate(285.9375,346.8125)"/>
<path d="M0 0 C2.43757413 -0.02698422 4.87484915 -0.04683099 7.3125 -0.0625 C8.00279297 -0.07087891 8.69308594 -0.07925781 9.40429688 -0.08789062 C12.5483025 -0.10307906 14.99420019 -0.00193327 18 1 C19.89212737 1.22179785 21.78884472 1.40614015 23.6875 1.5625 C24.68136719 1.64628906 25.67523438 1.73007812 26.69921875 1.81640625 C27.83810547 1.90728516 27.83810547 1.90728516 29 2 C30.99785435 6.1205746 31.17835515 9.45194365 31 14 C26.95839444 14.05831395 22.91689795 14.09370212 18.875 14.125 C17.73289062 14.14175781 16.59078125 14.15851563 15.4140625 14.17578125 C13.75117188 14.18544922 13.75117188 14.18544922 12.0546875 14.1953125 C11.03874512 14.20578613 10.02280273 14.21625977 8.97607422 14.22705078 C5.71711571 13.97841818 3.04884793 13.14878364 0 12 C0 8.04 0 4.08 0 0 Z " fill="#FEFEFE" transform="translate(321,350)"/>
<path d="M0 0 C3.52088564 -0.0271069 7.04156004 -0.04689102 10.5625 -0.0625 C11.55314453 -0.07087891 12.54378906 -0.07925781 13.56445312 -0.08789062 C18.82548699 -0.10536914 23.81764665 0.07691602 29 1 C29.02687279 2.81242052 29.04633715 4.62495233 29.0625 6.4375 C29.07410156 7.44683594 29.08570313 8.45617187 29.09765625 9.49609375 C29 12 29 12 28 13 C25.92737924 13.08767112 23.85179706 13.10695873 21.77734375 13.09765625 C20.51728516 13.09443359 19.25722656 13.09121094 17.95898438 13.08789062 C16.61848891 13.07953403 15.27799412 13.07106907 13.9375 13.0625 C12.59310058 13.0574866 11.2486994 13.05292342 9.90429688 13.04882812 C6.60284567 13.03699497 3.3014174 13.01905886 0 13 C0 8.71 0 4.42 0 0 Z " fill="#FEFEFE" transform="translate(133,349)"/>
<path d="M0 0 C3 6.5 3 6.5 3 11 C1.02090602 11.02686553 -0.95828971 11.04633375 -2.9375 11.0625 C-4.03964844 11.07410156 -5.14179688 11.08570313 -6.27734375 11.09765625 C-9 11 -9 11 -10 10 C-11.84891946 9.76636119 -13.70488031 9.58696365 -15.5625 9.4375 C-16.57441406 9.35371094 -17.58632813 9.26992188 -18.62890625 9.18359375 C-19.41136719 9.12300781 -20.19382812 9.06242187 -21 9 C-19.68 8.34 -18.36 7.68 -17 7 C-17 6.34 -17 5.68 -17 5 C-16.01 5 -15.02 5 -14 5 C-14 4.34 -14 3.68 -14 3 C-9.03006806 0.56574762 -5.65394631 -0.34615998 0 0 Z " fill="#FCFCFC" transform="translate(346,332)"/>
</svg>
